<svg xmlns="http://www.w3.org/2000/svg"  viewBox="0 0 64 64" width="512px" height="512px"><path fill="#faefde" d="M31 3A28 28 0 1 0 31 59A28 28 0 1 0 31 3Z"/><path fill="#ed7899" d="M3,31a28,28,0,0,1,56,0S3,32,3,31Z"/><path fill="#fff7f0" d="M43.59,56A28,28,0,0,1,5.86,43.33l2-1A4,4,0,0,1,13,43.65,22,22,0,0,0,37.8,51.92,4,4,0,0,1,42.58,54Z"/><path fill="#f283a5" d="M56,18.34l-2.1,1a4,4,0,0,1-5.07-1.29A22,22,0,0,0,24.34,10,4,4,0,0,1,19.64,8l-1-2.09A28,28,0,0,1,56,18.34Z"/><path fill="#fff7f0" d="M31 22A9 9 0 1 0 31 40A9 9 0 1 0 31 22Z"/><path fill="#f9e3ae" d="M31 27A4 4 0 1 0 31 35A4 4 0 1 0 31 27Z"/><path fill="#8d6c9f" d="M31,2A29,29,0,1,0,60,31,29,29,0,0,0,31,2Zm0,2A27,27,0,0,1,58,30h-17a10,10,0,0,0-.33-1.74,1,1,0,1,0-1.92.54A8,8,0,1,1,30.09,23a1,1,0,0,0-.23-2,10,10,0,0,0-8.81,9H4A27,27,0,0,1,31,4Zm0,54A27,27,0,0,1,4,32h17a10,10,0,0,0,19.88,0H58A27,27,0,0,1,31,58Z"/><path fill="#8d6c9f" d="M23.5 48.41a1 1 0 0 0-1.32.51l-.81 1.83a1 1 0 1 0 1.83.81L24 49.73A1 1 0 0 0 23.5 48.41zM28.14 49.78a1 1 0 0 0-1.14.83l-.31 2a1 1 0 0 0 .83 1.14h.16a1 1 0 0 0 1-.84l.31-2A1 1 0 0 0 28.14 49.78zM14.65 42.18L13 43.36A1 1 0 1 0 14.21 45l1.62-1.18a1 1 0 0 0-1.18-1.62zM33 49.9a1 1 0 0 0-.89 1.1l.21 2a1 1 0 0 0 1 .89h.11a1 1 0 0 0 .89-1.1l-.21-2A1 1 0 0 0 33 49.9zM18 46L16.72 47.6a1 1 0 0 0 1.56 1.26l1.26-1.56A1 1 0 1 0 18 46zM38.35 11.32a21.2 21.2 0 0 1 2.1.92 1 1 0 1 0 .9-1.79 22.82 22.82 0 0 0-2.3-1 1 1 0 1 0-.7 1.87zM24.22 11.07a1 1 0 0 0 .31 0 21.18 21.18 0 0 1 9.81-.75 1 1 0 1 0 .32-2 23.17 23.17 0 0 0-10.75.82 1 1 0 0 0 .31 2zM31 26a5 5 0 1 0 5 5A5 5 0 0 0 31 26zm0 8a3 3 0 1 1 3-3A3 3 0 0 1 31 34zM34.67 21.67a1 1 0 1 0-.74 1.86 8 8 0 0 1 2.6 1.67 1 1 0 0 0 1.39-1.44A10 10 0 0 0 34.67 21.67z"/></svg>